<svg xmlns="http://www.w3.org/2000/svg" viewBox="0 0 100 100" fill="none">
  <defs>
    <linearGradient id="favFrostBlueGrad" x1="0%" y1="0%" x2="100%" y2="100%">
      <stop offset="0%" stop-color="#00E5FF" />
      <stop offset="100%" stop-color="#00A2F3" />
    </linearGradient>
    <linearGradient id="favArrowGrad" x1="0%" y1="0%" x2="100%" y2="100%">
      <stop offset="0%" stop-color="#0F355C" />
      <stop offset="100%" stop-color="#0082C6" />
    </linearGradient>
    <g id="fav-snowflake-branch">
      <line x1="50" y1="50" x2="76" y2="50" stroke="url(#favFrostBlueGrad)" stroke-width="3.5" stroke-linecap="round" />
      <path d="M 64,50 L 69,45 M 64,50 L 69,55" stroke="url(#favFrostBlueGrad)" stroke-width="2.5" stroke-linecap="round" />
      <path d="M 57,50 L 61,46 M 57,50 L 61,54" stroke="url(#favFrostBlueGrad)" stroke-width="2.2" stroke-linecap="round" />
    </g>
  </defs>

  <use href="#fav-snowflake-branch" />
  <use href="#fav-snowflake-branch" transform="rotate(60 50 50)" />
  <use href="#fav-snowflake-branch" transform="rotate(120 50 50)" />
  <use href="#fav-snowflake-branch" transform="rotate(180 50 50)" />
  <use href="#fav-snowflake-branch" transform="rotate(240 50 50)" />
  <use href="#fav-snowflake-branch" transform="rotate(300 50 50)" />

  <path 
    d="M 75.4,24.6 A 36,36 0 0,0 18.8,68.0" 
    fill="none" 
    stroke="url(#favArrowGrad)" 
    stroke-width="4.5" 
    stroke-linecap="round" 
  />
  <path 
    d="M 15,60 L 18.8,68.0 L 27,65" 
    fill="none" 
    stroke="url(#favArrowGrad)" 
    stroke-width="4" 
    stroke-linecap="round" 
    stroke-linejoin="round"
  />

  <path 
    d="M 24.6,75.4 A 36,36 0 0,0 81.2,32.0" 
    fill="none" 
    stroke="url(#favArrowGrad)" 
    stroke-width="4.5" 
    stroke-linecap="round" 
  />
  <path 
    d="M 73,35 L 81.2,32.0 L 85,40" 
    fill="none" 
    stroke="url(#favArrowGrad)" 
    stroke-width="4" 
    stroke-linecap="round" 
    stroke-linejoin="round"
  />
</svg>